<?xml version="1.0" standalone="no"?>
<!DOCTYPE svg PUBLIC "-//W3C//DTD SVG 1.1//EN" "http://www.w3.org/Graphics/SVG/1.1/DTD/svg11.dtd" >
<!--
2013-9-30: Created.
-->
<svg>
<metadata>
Created by iconfont
</metadata>
<defs>

<font id="iconfont" horiz-adv-x="1024" >
  <font-face
    font-family="iconfont"
    font-weight="500"
    font-stretch="normal"
    units-per-em="1024"
    ascent="896"
    descent="-128"
  />
    <missing-glyph />
    
    <glyph glyph-name="importedlayers" unicode="&#58883;" d="M824.940637 219.808047 577.194636-175.359977C563.386182-197.408 539.337728-212 512-212 484.662272-212 460.613818-197.408 446.805364-175.359977L199.059363 219.808047C161.481728 279.808023 139.636364 351.295977 139.636364 428 139.636364 640.031953 306.362182 812 512 812 717.637818 812 884.363636 640.031953 884.363636 428 884.363636 351.295977 862.518272 279.808023 824.940637 219.808047ZM512 253.454545C614.825332 253.454545 698.181818 336.811031 698.181818 439.636364 698.181818 542.461696 614.825332 625.818182 512 625.818182 409.174668 625.818182 325.818182 542.461696 325.818182 439.636364 325.818182 336.811031 409.174668 253.454545 512 253.454545Z"  horiz-adv-x="1024" />

    
    <glyph glyph-name="fangdajing" unicode="&#58905;" d="M433.50167 191.319629c-159.941736 0-289.73687 129.35409-289.73687 288.840454 0 159.491481 129.795135 288.694121 289.73687 288.694121 159.935596 0 289.581328-129.35409 289.581328-288.694121C723.082998 320.673719 593.431126 191.319629 433.50167 191.319629L433.50167 191.319629zM935.387311-7.706263 689.961646 236.974435c60.272735 63.257719 97.42182 148.59634 97.42182 242.74051 0.00614 194.841593-158.442592 352.84007-353.881796 352.84007-195.597817 0-354.041432-157.997454-354.041432-352.84007 0-195.001229 158.443615-352.995613 354.041432-352.995613 77.729316 0 149.488663 25.362644 207.827349 67.729567l248.403486-247.660566c12.679787-12.534478 32.973996-12.534478 45.654806 0C947.914626-40.529833 947.914626-20.388097 935.387311-7.706263L935.387311-7.706263zM935.387311-7.706263"  horiz-adv-x="1024" />

    
    <glyph glyph-name="fenxiang06" unicode="&#59057;" d="M479.218092-53.394333c-198.920717-9.041851-361.674032 94.939433-361.674032 230.567195 0 135.627762 162.753314 248.650897 361.674032 257.692747 198.920717 9.041851 361.674032-76.855732 361.674032-212.483494C845.413049 86.754354 682.659735-44.352482 479.218092-53.394333zM908.706004 394.177281c-49.730179 9.041851-22.604627 36.167403-22.604627 36.167403s45.209254 76.855732-9.041851 135.627762c-67.813881 72.334806-235.088121-9.041851-235.088121-9.041851-63.292956-22.604627-45.209254 9.041851-36.167403 58.77203 0 58.77203-18.083702 162.753314-189.878867 99.460359-171.795165-58.77203-316.464778-271.255524-316.464778-271.255524-103.981284-140.148687-90.418508-248.650897-90.418508-248.650897 27.125552-239.609046 271.255524-302.902001 465.655316-320.985703 203.441643-18.083702 474.697166 72.334806 556.073824 253.171822C1107.626722 312.800624 953.915258 385.13543 908.706004 394.177281zM637.450481 235.944892c-31.646478 90.418508-135.627762 131.106836-239.609046 99.460359-103.981284-36.167403-162.753314-135.627762-135.627762-221.525344 31.646478-90.418508 135.627762-131.106836 239.609046-99.460359C605.804003 46.066026 669.096958 145.526385 637.450481 235.944892zM406.883286 77.712504c-36.167403-9.041851-76.855732 4.520925-85.897582 36.167403-9.041851 31.646478 13.562776 63.292956 54.251105 76.855732 36.167403 9.041851 76.855732-4.520925 85.897582-36.167403C470.176241 122.921758 447.571614 86.754354 406.883286 77.712504zM519.90642 190.735638c-4.520925-13.562776-22.604627-22.604627-36.167403-18.083702-13.562776 4.520925-18.083702 22.604627-13.562776 36.167403 4.520925 13.562776 22.604627 22.604627 36.167403 18.083702C519.90642 217.861191 524.427346 204.298415 519.90642 190.735638zM1220.649857 443.907461c0 4.520925 4.520925 9.041851 4.520925 13.562776 27.125552 76.855732 13.562776 153.711463-18.083702 226.04627-54.251105 126.585911-180.837016 212.483494-320.985703 212.483494-27.125552 0-54.251105-4.520925-76.855732-9.041851 0 0 0 0 0 0 0 0 0 0 0 0 0 0-4.520925 0-9.041851-4.520925l0 0C777.599168 868.874448 768.557317 850.790746 768.557317 828.186119c0-31.646478 22.604627-54.251105 54.251105-54.251105 4.520925 0 9.041851 0 18.083702 4.520925l0 0c13.562776 9.041851 40.688329 13.562776 45.209254 13.562776 0 0 4.520925 0 4.520925 0 94.939433 0 185.357941-54.251105 226.04627-149.190538C1134.752274 588.577073 1139.273199 534.325968 1130.231349 484.595789c0-4.520925-4.520925-13.562776-4.520925-18.083702 0-27.125552 22.604627-49.730179 49.730179-49.730179 4.520925 0 4.520925 0 9.041851 0l0 0c0 0 4.520925 0 4.520925 0 13.562776 4.520925 22.604627 9.041851 31.646478 18.083702C1220.649857 439.386535 1220.649857 439.386535 1220.649857 443.907461 1220.649857 439.386535 1220.649857 443.907461 1220.649857 443.907461zM895.143228 706.121133c-13.562776 0-31.646478-4.520925-45.209254-4.520925-13.562776-4.520925-27.125552-18.083702-27.125552-31.646478 0-18.083702 13.562776-31.646478 31.646478-31.646478 4.520925 0 9.041851 0 13.562776 4.520925 9.041851 0 13.562776 4.520925 22.604627 4.520925 45.209254 0 85.897582-36.167403 85.897582-81.376657 0-9.041851 0-13.562776-4.520925-22.604627 0-4.520925 0-9.041851 0-13.562776 0 0 0 0 0 0 0 0 0 0 0 0 0 0 0 0 0 0l0 0c0 0 0-4.520925 0-4.520925l0 0c4.520925-18.083702 18.083702-27.125552 31.646478-27.125552 13.562776 0 22.604627 9.041851 31.646478 18.083702l0 0c4.520925 13.562776 9.041851 31.646478 9.041851 49.730179C1044.333766 638.307253 976.519885 706.121133 895.143228 706.121133z"  horiz-adv-x="1240" />

    
    <glyph glyph-name="weixin" unicode="&#58928;" d="M890.88 586.24a434.468571 434.468571 0 0 0 45.348571-2.706286C896 762.88 694.857143 896 465.92 896 209.92 896 0 729.380571 0 517.632A361.764571 361.764571 0 0 1 186.514286 217.234286l-46.811429-133.778286 163.108572 77.897143a845.019429 845.019429 0 0 1 163.108571-21.942857c14.628571 0 29.257143 0.658286 43.154286 1.682285a328.704 328.704 0 0 0-13.897143 93.330286c0 194.340571 174.811429 352.109714 395.702857 352.109714zM640.731429 706.852571a55.661714 55.661714 0 1 0 0-111.177142 64.658286 64.658286 0 0 0-70.217143 55.661714 64.438857 64.438857 0 0 0 70.217143 55.515428zM314.514286 595.675429a64.658286 64.658286 0 0 0-70.217143 55.661714 64.512 64.512 0 0 0 70.217143 55.515428 55.661714 55.661714 0 1 0 0-111.177142zM1316.571429 239.542857c0 177.883429-186.514286 322.779429-395.702858 322.779429-221.622857 0-396.434286-145.042286-396.434285-322.779429s174.811429-322.779429 396.434285-322.779428a613.888 613.888 0 0 1 139.702858 21.942857l128-66.706286-35.108572 111.250286a334.921143 334.921143 0 0 1 163.108572 256z m-524.434286 55.661714a44.544 44.544 0 1 0 0 88.941715 52.882286 52.882286 0 0 0 58.514286-44.470857 52.662857 52.662857 0 0 0-58.514286-44.470858z m256 0a44.470857 44.470857 0 1 0 0 88.941715 52.882286 52.882286 0 0 0 58.514286-44.470857 52.662857 52.662857 0 0 0-58.514286-44.470858z"  horiz-adv-x="1316" />

    
    <glyph glyph-name="gouwuche" unicode="&#59059;" d="M482.836415 179.803737c-32.233437 0-58.429499-25.377436-58.4295-56.689917 0-31.312481 26.196063-56.689917 58.4295-56.689917s58.429499 25.377436 58.429499 56.689917c0 31.312481-26.093734 56.689917-58.429499 56.689917z m279.254122 0c-32.233437 0-58.429499-25.377436-58.4295-56.689917 0-31.312481 26.196063-56.689917 58.4295-56.689917s58.429499 25.377436 58.429499 56.689917c0 31.312481-26.093734 56.689917-58.429499 56.689917zM830.752873 284.076347H423.997602L283.910063 685.612871c-4.093135 11.665434-15.349256 17.60048-28.140302 17.60048H132.054762c-16.372539 0-29.675227-11.153792-29.675228-27.117018 0-15.860897 13.302688-27.117018 29.675228-27.117019h102.430698l139.985211-401.536524c4.093135-11.665434 15.349256-17.60048 28.140301-17.60048h428.141901c16.372539 0 29.675227 11.153792 29.675227 27.117018 0 15.860897-13.302688 27.117018-29.675227 27.117019zM894.401119 596.484861l-503.557909 42.568602c-16.270211 1.330269-25.275107-9.823524-20.158689-24.763466l88.002398-255.411612c5.218747-15.04227 22.819227-29.265914 39.191766-29.265914h367.563505c16.372539 0 31.107825 14.939942 32.847407 30.698511l22.512242 204.145099c1.739582 15.656241-10.130509 30.698511-26.40072 32.02878z"  horiz-adv-x="1024" />

    
    <glyph glyph-name="down" unicode="&#58894;" d="M512-24.07078644857154L261.52759123783613 365.40411978190457l500.94424467363297 0L512-24.07078644857154z"  horiz-adv-x="1024" />

    
    <glyph glyph-name="dayuhao" unicode="&#58923;" d="M313.616-112.348l463.113 463.67c8.399 8.4 13.593 20.006 13.593 32.824s-5.195 24.423-13.593 32.824L312.455 881.801C303.999 890.559 292.154 895.998 279.038 895.998c-25.641 0-46.427-20.786-46.427-46.427 0-13.091 5.419-24.919 14.137-33.359l464.287-464.889v65.648L247.922-46.746c-8.731-8.452-14.15-20.279-14.15-33.37 0-25.641 20.786-46.427 46.427-46.427 13.115 0 24.961 5.438 33.404 14.183z"  horiz-adv-x="1024" />

    
    <glyph glyph-name="zhixian" unicode="&#58886;" d="M1159.66561739 399.90990258l0-33.74888084L-131.79023029 365.90513747l0 33.75020667z"  horiz-adv-x="1024" />

    
    <glyph glyph-name="triangle-copy" unicode="&#58630;" d="M166.692 682.538l692.46 0-343.06800001-593.65z"  horiz-adv-x="1024" />

    
    <glyph glyph-name="kefu" unicode="&#58977;" d="M809.537 399.16c0 164.357-133.264 297.564-297.565 297.564-164.328 0-297.537-133.207-297.537-297.564 0-164.355 133.21-297.563 297.537-297.563 164.3 0 297.565 133.208 297.565 297.563zM915.226 454.889C887.962 653.05 717.561 806.195 512.026 806.195c-205.531 0-375.953-153.14-403.225-351.297-26.396-4.822-46.412-27.924-46.412-55.738 0-31.313 25.365-56.702 56.65-56.702 31.312 0 56.675 25.39 56.675 56.702 0 25.032-16.215 46.247-38.714 53.757 26.195 183.529 184.37 325.077 375.026 325.077 190.627 0 348.796-141.54 374.996-325.06-22.516-7.496-38.737-28.723-38.737-53.774 0-25.05 16.223-46.296 38.74-53.797C865.07 191.52 750.354 67.192 601.512 31.006c-7.971 11.828-21.484 19.614-36.83 19.614h-105.31c-24.565 0-44.393-19.91-44.393-44.419 0-24.483 19.828-44.396 44.393-44.396h105.31c23.733 0 43.084 18.627 44.328 42 160.178 39.3 283.398 173.646 306.22 339.604 26.39 4.846 46.38 27.957 46.38 55.751 0 27.796-19.99 50.888-46.383 55.729z"  horiz-adv-x="1024" />

    
    <glyph glyph-name="dayuhao1" unicode="&#58884;" d="M710.948571 881.371429l-462.262857-462.262858c-8.777143-8.777143-14.628571-20.48-14.628571-32.182857s5.851429-23.405714 14.628571-32.182857L710.948571-113.37142900000003C719.725714-122.14857099999995 731.428571-128 746.057143-128 769.462857-128 789.942857-107.51999999999998 789.942857-81.18857100000002c0 11.70285699-2.925714 23.405714-11.702857 32.182857l-465.188571 465.188571 0-64.365714L775.314286 814.08c8.777143 8.777143 14.628571 20.48 14.628571 35.108571 0 23.405714-20.48 46.811429-46.811428 46.811429-11.70285699 0-23.405714-5.851429-32.182858-14.628571z"  horiz-adv-x="1024" />

    
    <glyph glyph-name="daohang" unicode="&#58893;" d="M512 384m-512 0a512 512 0 1 1 1024 0 512 512 0 1 1-1024 0ZM516.9 691.2c-115 0-235.1-91.3-235.3-222.2-0.2-156.6 235.3-392.2 235.3-392.2S752.5 312 752.2 469C752 599.7 631.9 691.2 516.9 691.2z m0-326.8c-57.8 0-104.6 46.8-104.6 104.6S459.1 573.6 516.9 573.6 621.5 526.7 621.5 469 574.7 364.4 516.9 364.4z"  horiz-adv-x="1024" />

    
    <glyph glyph-name="shuxian" unicode="&#58939;" d="M531.185-47.532c0-8.9-6.493-16.114-14.503-16.114h-9.364c-8.01 0-14.504 7.214-14.504 16.114V815.533c0 8.899 6.493 16.114 14.504 16.114h9.364c8.01 0 14.503-7.215 14.503-16.114v-863.065z"  horiz-adv-x="1024" />

    
    <glyph glyph-name="sanjiaoxing-copy-copy" unicode="&#58631;" d="M191.815 640.01999998l640.37 0-320.184-384.016z"  horiz-adv-x="1024" />

    
    <glyph glyph-name="shuxian1" unicode="&#58885;" d="M501.29032533 920.04898133h17.59232v-1073.73226666l-17.59095466 0.00136533-0.00136534 1073.73090133z"  horiz-adv-x="1024" />

    
    <glyph glyph-name="sanjiaoxing" unicode="&#58898;" d="M869.54 552.612c-56.095 72.187-147.108 72.105-203.12 0L362.89 241.193c-56.094-72.187-27.177-130.683 63.831-130.683h682.517c91.34 0 119.844 58.619 63.83 130.724L869.582 552.612h-0.041z"  horiz-adv-x="1536" />

    
    <glyph glyph-name="xiasanjiao" unicode="&#58625;" d="M513.04284287 274.28424023l265.92493057 287.07146647c9.70423222 10.79052687 25.34687519 10.79052687 35.0511074-1e-8 4.63485718-5.14179469 7.24196434-12.16650009 7.24196435-19.48088407s-2.60710716-14.3390894-7.24196435-19.48088408l-283.37806463-314.80818986c-9.70423222-10.79052687-25.34687519-10.79052687-35.0511074 0L212.06680488 522.39393855c-4.63485718 5.14179469-7.24196434 12.16650009-7.24196434 19.48088407 0 7.31438399 2.60710716 14.3390894 7.24196434 19.48088407 9.70423222 10.79052687 25.34687519 10.79052687 35.05110741 0l265.92493057-287.07146645z"  horiz-adv-x="1024" />

    
    <glyph glyph-name="gouwuche1" unicode="&#58882;" d="M331.359 87.49c-23.729 0-42.967-19.24-42.967-42.97 0-23.708 19.238-42.99 42.967-42.99 23.731 0 42.968 19.282 42.968 42.99 0 23.73-19.237 42.97-42.968 42.97z m429.69 0c-23.73 0-42.967-19.24-42.967-42.97 0-23.708 19.238-42.99 42.966-42.99 23.732 0 42.969 19.282 42.969 42.99 0 23.73-19.238 42.97-42.969 42.97z m47.668 85.938H314.576s-92.15 292.031-150.392 494.14c-7.364 25.576-22.387 21.486-42.97 21.486H99.73c-23.875 0-36.827-0.083-36.827-21.486 0-19.32 14.589-21.484 36.827-21.484h21.486c20.728 0 171.875-515.626 171.875-515.626h515.626c29.563 0 27.59 42.97 0 42.97z m-4.7 42.968l90.638 322.268H250.122l107.421-322.268h446.474z"  horiz-adv-x="1024" />

    
    <glyph glyph-name="sjx" unicode="&#58626;" d="M513.44 232.5l367.2 396.4c13.4 14.9 35 14.9 48.4 0 6.4-7.1 10-16.8 10-26.9s-3.6-19.8-10-26.9l-391.3-434.7c-13.4-14.9-35-14.9-48.4 0L97.84 575.1c-6.4 7.1-10 16.8-10 26.9 0 10.1 3.6 19.8 10 26.9 13.4 14.9 35 14.9 48.4 0l367.2-396.4z"  horiz-adv-x="1024" />

    
    <glyph glyph-name="dayuhao2" unicode="&#58629;" d="M825.536512 191.11014401l-314.126336 305.09465599-326.689792-328.646656c-21.392384-15.76448-68.62438401 16.36352-54.110208 61.643776l364.102656 366.610432c4.992 4.876288 11.73606399 7.6544 18.798592 7.65439999s13.804544-2.778112 18.746368-7.70559998L896.360448 234.32191999999998c0.128-58.891264-44.051456-65.717248-70.823936-43.21177599z"  horiz-adv-x="1024" />

    
    <glyph glyph-name="shuxian2" unicode="&#59018;" d="M483.84 723.456h37.376v-672.768h-37.376z"  horiz-adv-x="1024" />

    


  </font>
</defs>
</svg>
