<?xml version="1.0" encoding="utf-8"?>
<!-- Generator: Adobe Illustrator 23.0.1, SVG Export Plug-In . SVG Version: 6.00 Build 0)  -->
<svg version="1.1" id="图层_1" xmlns="http://www.w3.org/2000/svg" xmlns:xlink="http://www.w3.org/1999/xlink" x="0px" y="0px"
	 viewBox="0 0 44.9 43.5" style="enable-background:new 0 0 44.9 43.5;" xml:space="preserve">
<style type="text/css">
	.st0{fill:#9C999A;}
</style>
<title>支付宝--灰</title>
<path class="st0" d="M42.7,30c1.2-2.6,1.8-5.4,1.8-8.3c0-11.7-9.9-21.3-22-21.3s-22,9.5-22,21.3S10.3,43,22.4,43
	c7,0,13.6-3.2,17.8-8.8c-3.8-1.8-10-4.8-13.8-6.6c-2,2.3-4.7,4-7.6,4.9c-1.8,0.6-3.6,0.7-5.5,0.4c-1.5-0.3-2.8-1-3.9-2
	c-0.5-0.5-0.8-1-1.2-1.6l0,0.1c-0.1-0.3-0.3-0.5-0.3-0.8c-0.1-0.2-0.1-0.5-0.1-0.8c0-0.2,0-0.4,0-0.5c0-0.3,0-0.7,0.1-1
	c0.2-1,0.7-2,1.5-2.7c1.8-1.5,4.1-2.2,6.4-2.1c3.1,0.3,6.2,0.9,9.1,2c0.7-1.6,1.4-3.3,1.8-5H13.6v-1.4h6.8v-2.8h-8.2V13h8.2v-2.8
	c0-0.4,0.1-0.7,0.7-0.7h3.2V13h8.9v1.4h-8.9v2.8h7.1c-0.6,2.7-1.6,5.3-3,7.7C33.4,26.5,40.4,29.2,42.7,30z M10.4,24.4
	c-0.6,0.4-1,1-1.2,1.8c-0.3,1.2,0.1,2.5,1,3.3c1.1,0.9,2.5,1.5,3.9,1.6c2.3,0,4.5-0.8,6.3-2.1c1.1-0.8,2.1-1.8,3-2.9
	c-2.5-1.3-5.7-2.7-9.1-2.5C12.9,23.5,11.6,23.8,10.4,24.4L10.4,24.4z"/>
</svg>
