<svg xmlns="http://www.w3.org/2000/svg" viewBox="0 0 57.47 57.47"><defs><style>.cls-1{fill:#d32f28;}</style></defs><title>资源 15</title><g id="图层_2" data-name="图层 2"><g id="图层_1-2" data-name="图层 1"><path class="cls-1" d="M28.16,23.85h0a1.15,1.15,0,0,1,0-.14C28.15,23.75,28.16,23.8,28.16,23.85Zm11,12Zm.28,0c-.07,0-.22,0-.28,0C39.16,36,39.22,36.08,39.48,35.94ZM28.73,0A28.74,28.74,0,1,0,57.47,28.73,28.73,28.73,0,0,0,28.73,0ZM47.09,11.22a4.1,4.1,0,0,0-2.48.58,3,3,0,0,1-.94.63c-.37.11-.76,0-1.12.14-1.31.44-1.1,3.24-2.82,2.82-.81-.2-1.38-1.16-1.79-1.78s-1-1-.57-1.69c-.2.05-.41,0-.61,0,.28-.6,1.2-.55,1.35-.86.39-.78-1-.86-1.46-1,.49-.53.74.17,1.23,0s-.25-.72-.53-.79c-.1,0-1.74.45-.79-.4L33.05,6.75c-.2.83,1.56,1.3,2.13,1.6-.09.34-.62.84-1,.69s-.23-.77-.81-.71c-.41,1,.88.68,1,1.27s-.49.39-.73.38c-.06,0-.51-.47-.53-.11s.71.25.77.67a3,3,0,0,1-2-.74,3.17,3.17,0,0,0-2.25-.5,4.75,4.75,0,0,0,1-.42,4.69,4.69,0,0,0,.73-.76c.15-.52,0-.48-.51-.82a5.07,5.07,0,0,0-1.5-1c-1.93-.38-.6,1.75-2.06,2h0c-.34,0-1-.09-1.2.09s-.16.63-.34.81c-.3.33-.76.39-1.13.63a5.06,5.06,0,0,0-1.35,1.22c-.78,1.48,1.74,1.94,2.69,2.37.44.19,1.7.46,1.93.79s-.27.85.39,1.15a.81.81,0,0,0,.82-.08c.29-.33-.12-.41-.19-.79-.14-.73.09-.44.46-.72.75-.55.58-.59.31-1.47-.13-.42-.6-1.57-.18-1.88s1.71.22,2.12.27.77.74,1,1,.49.57.8.53c.49-.07.28-.49.57-.69.76-.53,1,.19,1.26.9a3.16,3.16,0,0,0,1.06,1.36c.24.2,1.27.92,1.17,1.36s-1.24.75-1.56.85c-1.15.36-3.31-.6-3.54,1.23.44-.17,1.72-1.21,2.1-.72.17.23-.14.55-.07.77.22.67.73.44,1.27.33l-.11.06c.73-.38.66-.3,1-.91A4.62,4.62,0,0,1,37,16c.54-.49.62-.15.95.23.09.1.91,1.28.61,1.22a3.42,3.42,0,0,0-2.65.35,7.55,7.55,0,0,1-1.43.91c-.13.05-1.1.14-1,0s.74-.4,1-.65c-.62-.26-1.15.31-1.64.64s-.64.71-1.09,1.11c-.19.18-.56.21-.75.44s-.21.58-.38.79-.44.06-.57.28.16.57.09.78c-.13.39-.86.72-1.15,1L29,23a7.76,7.76,0,0,0-.86.86,7.81,7.81,0,0,1,.34,1.9c-.3.88-.87-.47-1.1-.82-.79-1.2-2.38-.4-3.47-.3-1.39.13-2.74,1.93-1.89,3.39a1.67,1.67,0,0,0,1.9.81c.7-.14.91-1.13,1.58-1.15,1.22,0,0,1.2-.08,1.65s.15.46.58.56.77-.14,1,.05.16.74.4.54a1.14,1.14,0,0,0,.12,1.65c.53.37,1.16,0,1.72.17,1.06.26.55-.08,1.48-.64.63-.38.73.07,1.16.07s.47-.42,1-.3.55.41,1,.48c.2,0,.4-.07.58,0A4.69,4.69,0,0,1,36.76,33c.57.42,1,.33,1.61.52.49.14,1.38.84,1.34,1.46,0,.11-.44.66-.51.91a5.32,5.32,0,0,0,1.24-.12c-.08.09-.67.51-.67.29,0,.11.42.34.52.41.3-1,.81-.35,1.41-.11a11.93,11.93,0,0,0,1.7.36,4.64,4.64,0,0,1,1.85.8c.41.46.13,1.21-.18,1.67s-1,.83-1.26,1.53a11.93,11.93,0,0,0-.17,1.74c-.15.84-.27.55-.81,1.06s0,.35-.63.63-1.17.19-1.6.87c0,0,0-.08,0-.13a4.82,4.82,0,0,0-.36,1,4.6,4.6,0,0,1-.86,1.07c-.13.14-1.34,1.79-1.41,1.66s-1,.17-1.09-.08c0,.21,0,.14.23.26-.22,1.36-.79,1.56-2.12,1.57.11.65-.49.52-.76.87a6.16,6.16,0,0,0-.36,1,10.92,10.92,0,0,0-.59,1c0,.13.18.3.34.48a26.78,26.78,0,0,1-2.87.39c.18-.23.23-.43-.35-.46.15-.42.52-.66.67-1.07.08-.19,0-.27.08-.46.21-.66.12-.41,0-.92-.28-1.2.1-1.53.43-2.63a37.83,37.83,0,0,0,.51-3.8,6,6,0,0,0,.07-2.35c-.23-.62-1.23-1.1-1.69-1.52a9.14,9.14,0,0,1-1.47-2,9.09,9.09,0,0,1-.72-1.14c-.41-.87,0-.35.07-.86a5.61,5.61,0,0,1,.14-1.45c.21-.57.75-.93.93-1.5A1,1,0,0,0,29,32.63c-.29-.1-.61.12-.91.07a2.93,2.93,0,0,1-1.2-.62c-.45-.34-.62-.9-1.1-1.22s-.69-.11-1.12-.24-.72-.68-1.08-.86c-.55-.26-.85.12-1.42,0A7.92,7.92,0,0,1,20.46,29a3.06,3.06,0,0,1-1.86-1.81,6.81,6.81,0,0,0-1.32-1.85c-.55-.68-.73-1.26-1.58-1.44-.1,0,.21.71.24.77a17.76,17.76,0,0,0,1.13,1.6c.54.77.31.92-.24.17s-1.36-1.7-1.9-2.6c-.21-.34-.17-.57-.51-.89s-.75-.46-1.08-.76a4.48,4.48,0,0,1-1.27-4,5.45,5.45,0,0,0,.14-1.37,1.87,1.87,0,0,0-.59-1l-.34-.54A4.59,4.59,0,0,0,10.37,14c-.25-.21-.88-.71-1.48-1.12A25.49,25.49,0,0,1,19.14,5.18a1.54,1.54,0,0,0,.25.6c.33.49.65.45,1.3.59-.07.75-1,.76-1.55.68s-1.46-.34-2.07.29c.34.2,1.27,1,1.15.16a12.11,12.11,0,0,1,2,0c.27,0,1.16.33,1.41.2s.21-.56.32-.72c-.2,0-.4-.09-.59-.07.44-.57.88-.13,1.44.13-.61.38-.25,1.28.36.55s-.12-1-.75-1.39c.63-.79,1-.87,1.62,0,.1-.55.55-.33,1-.29V5.83c-.2,0-.42-.11-.63-.09.48-.76.18-.93.86-1.18s2.08,0,2.27-.52a13.44,13.44,0,0,0-3.36.75c-.42.21-.92.88-1.34.45s.31-1.17.69-1.39h-.1a25.83,25.83,0,0,1,5.3-.55,24.62,24.62,0,0,1,3.46.24c-.39.2-.1.34-.38.55a10.69,10.69,0,0,1-2.17,1c.83,0,2.83.77,3.21-.38l-.8-.13a7.1,7.1,0,0,1,1.64-.79,25.44,25.44,0,0,1,13.47,7.44Zm4.65,10.09c0-.1.15-.13.2-.22s.07-.29.19-.44.3-.2.44-.33a.53.53,0,0,0,.12-.15,25.15,25.15,0,0,1,1,3.67s0,0,0,0a1.92,1.92,0,0,1-.54.11,1,1,0,0,1-.72-.37,3,3,0,0,1-.62-.67c-.16-.25-.06-.52,0-.81S51.63,21.53,51.74,21.31Zm.33,13.18a7.82,7.82,0,0,1-1.43-1.56c-.38-.59-.14-1.2-.12-1.88s-.25-1.38,0-1.9c.11-.23.37-.31.47-.5.22-.41.17-.68.45-1s.69-.47,1-.77.34-.55.55-.94a3.66,3.66,0,0,1,.89-1,25.75,25.75,0,0,1,.29,3.85,25.24,25.24,0,0,1-.86,6.55A3.16,3.16,0,0,1,52.07,34.49Z"/></g></g></svg>