<?xml version="1.0" encoding="utf-8"?>
<!-- Generator: Adobe Illustrator 23.0.1, SVG Export Plug-In . SVG Version: 6.00 Build 0)  -->
<svg version="1.1" id="图层_1" xmlns="http://www.w3.org/2000/svg" xmlns:xlink="http://www.w3.org/1999/xlink" x="0px" y="0px"
	 viewBox="0 0 43.2 42.7" style="enable-background:new 0 0 43.2 42.7;" xml:space="preserve">
<style type="text/css">
	.st0{fill:#9C999A;}
</style>
<title>QQ-灰</title>
<g>
	<g id="图层_1-2">
	</g>
</g>
<path class="st0" d="M30.7,28c-0.5-0.1-2-2.6-2-2.6c0,1.9-0.9,3.8-2.4,5c1.4,0.4,1.8,0.9,1.8,1.2c0,0.5-1.7,0.4-3.7,0.4
	c-0.7,0-1.3,0-1.9,0c-0.3,0-0.6,0-0.9,0h-0.3c-0.4,0-0.8,0-1.2-0.1C19.4,32,18.5,32,17.7,32c-2,0-3.6,0-3.6-0.4s0.5-1,2.5-1.4
	c-1.4-1.2-2.2-3-2.2-4.8c0,0-1.4,2.5-2,2.6c-0.3,0.1-0.4-1-0.2-2.5c0.1-0.8,0.3-1.6,0.6-2.4c0,0,0.5-1.7,0.8-2.5s0.9-2.1,0.9-2.1
	s-0.5-6.7,3.7-9.2c1.8-1,3.9-1.1,5.8-0.3c0.3,0.1,0.5,0.2,0.8,0.3c4.3,2.5,3.7,9.2,3.7,9.2s0.6,1.4,0.9,2.2s0.8,2.5,0.8,2.5
	c0.3,0.8,0.5,1.6,0.6,2.4C31.1,26.9,31,28,30.7,28z M21.6,0.1C9.8,0.1,0.3,9.6,0.3,21.4s9.5,21.3,21.3,21.3s21.3-9.5,21.3-21.3
	S33.3,0.1,21.6,0.1L21.6,0.1z"/>
</svg>
