<?xml version="1.0" encoding="utf-8"?>
<!-- Generator: Adobe Illustrator 23.0.1, SVG Export Plug-In . SVG Version: 6.00 Build 0)  -->
<svg version="1.1" id="图层_1" xmlns="http://www.w3.org/2000/svg" xmlns:xlink="http://www.w3.org/1999/xlink" x="0px" y="0px"
	 viewBox="0 0 779.9 75.3" style="enable-background:new 0 0 779.9 75.3;" xml:space="preserve">
<style type="text/css">
	.st0{enable-background:new    ;}
	.st1{fill:#D7000F;}
</style>
<title>国家队资源</title>
<g>
	<g id="图层_1-2">
		<g class="st0">
			<path class="st1" d="M237.8,57.6h-8.9l7.6-42.5h8.9l3.8,20.8l0.4,3l0.5-4.5l3.4-19.3h8.9l-7.6,42.5h-8.7l-4-20.8l-0.4-3l-0.6,4.8
				L237.8,57.6z"/>
		</g>
		<g class="st0">
			<path class="st1" d="M273.3,54.2c-1.6,2.7-4.1,4.1-7.6,4.1c-5.8,0-7.7-3-6.6-9.6l0.2-1.3c0.7-3.7,2-5.8,3.9-7
				c2.4-1.5,4.1-1.9,7.8-3.1c3.5-1.1,4.9-1.7,5.3-3.7l0.1-0.7c0.3-2.1-0.2-2.9-1.7-2.9c-1.3,0-2.1,0.7-2.5,2.9l-0.5,2.8h-9.8
				l0.5-3.1c1.1-6.3,5.3-10.1,13-10.1c8.4,0,11.3,3.9,9.9,11.8l-2.4,13.5c-0.2,1.2,0,1.4,1.1,1.4h0.7l-1.4,8.5h-4.2
				C275.3,57.6,273.6,56.8,273.3,54.2z M273.8,47.8l1.3-7c-0.2,0.5-0.6,0.7-1.4,1c-1.2,0.4-2,0.8-2.5,1.3c-0.8,0.7-1.1,1.4-1.5,3.4
				l-0.3,1.6c-0.4,2,0.2,2.9,1.6,2.9C272.5,50.9,273.5,49.8,273.8,47.8z"/>
		</g>
		<g class="st0">
			<path class="st1" d="M300.2,57.6h-3.6c-7.5,0-9.6-2.2-8.2-10.1l2.7-15.1h-3.4l1.6-8.9c1-0.1,2-0.2,3.1-0.8
				c1.1-0.7,1.9-1.5,2.6-2.8c0.6-1.1,1-2,1.3-3.2h6.9L302,23h4.4l-1.7,9.4h-4.4l-2.2,12.3c-0.6,3.4,0.3,3.7,2.5,3.7h1.1L300.2,57.6z
				"/>
			<path class="st1" d="M309,23.3c0.8,0.6,2.4,1,5,1s4.2-0.4,5.1-1.1l-6.1,34.4h-10.1L309,23.3z M309.7,17.3
				c0.7-3.8,2.1-4.8,6.1-4.8c3.9,0,5.4,1.2,4.8,4.8c-0.7,3.7-2.2,4.8-6.1,4.8C310.3,22.1,309,20.8,309.7,17.3z"/>
			<path class="st1" d="M318.4,45.4l2.2-12.2c1.1-6.5,5.8-10.6,12.7-10.6c8.7,0,12,5.1,10.6,13.1L341.6,48
				c-1.1,6.5-5.7,10.3-12.8,10.3C320,58.2,317.1,52.9,318.4,45.4z M332.3,46.5l2.2-12.2c0.5-2.7-0.2-3.5-1.7-3.5
				c-1.3,0-2.2,0.8-2.7,3.2l-2.2,12.6c-0.4,2.5,0.4,3.4,1.7,3.4C331,49.9,331.9,48.9,332.3,46.5z"/>
		</g>
		<g class="st0">
			<path class="st1" d="M353.2,57.6h-9.9l6.2-34.6h8.1l0.2,4.1c1.5-2.8,3.8-4.5,7.1-4.5c5.4,0,7.9,3.2,6.7,10l-4.5,25h-9.9l4.2-23.3
				c0.4-2.1,0.2-3.3-1.4-3.3c-1.6,0-2.2,1.2-2.7,3.5L353.2,57.6z"/>
		</g>
		<g class="st0">
			<path class="st1" d="M385.4,54.2c-1.6,2.7-4.1,4.1-7.6,4.1c-5.8,0-7.7-3-6.6-9.6l0.2-1.3c0.7-3.7,2-5.8,3.9-7
				c2.4-1.5,4.1-1.9,7.8-3.1c3.5-1.1,4.9-1.7,5.3-3.7l0.1-0.7c0.3-2.1-0.2-2.9-1.7-2.9c-1.3,0-2.1,0.7-2.5,2.9l-0.5,2.8h-9.8
				l0.5-3.1c1.1-6.3,5.3-10.1,13-10.1c8.4,0,11.3,3.9,9.9,11.8l-2.4,13.5c-0.2,1.2,0,1.4,1.1,1.4h0.7l-1.4,8.5h-4.2
				C387.4,57.6,385.7,56.8,385.4,54.2z M385.9,47.8l1.3-7c-0.2,0.5-0.6,0.7-1.4,1c-1.2,0.4-2,0.8-2.5,1.3c-0.8,0.7-1.1,1.4-1.5,3.4
				l-0.3,1.6c-0.4,2,0.2,2.9,1.6,2.9C384.6,50.9,385.6,49.8,385.9,47.8z"/>
			<path class="st1" d="M405.9,12.6h9.8l-8.1,45h-9.8L405.9,12.6z"/>
		</g>
		<g class="st0">
			<path class="st1" d="M444.7,23.9l-6.1,33.7h-9.9l6.1-33.7h-6.6l1.6-8.8h22.9l-1.6,8.8H444.7z"/>
		</g>
		<g class="st0">
			<path class="st1" d="M457.6,58.2c-9.2,0-11.9-5.1-10.5-12.8c0-0.1,2.2-12.3,2.2-12.4c1.1-6.6,5.9-10.6,12.7-10.6
				c8.7,0,12.2,4.9,10.7,12.6l-1.4,7.6H457l-0.7,3.5c-0.5,3,0.1,3.8,1.8,3.8s2.3-1.2,2.8-3.7l0.2-1.2h9.6l-0.6,3
				C468.7,55.5,464.9,58.2,457.6,58.2z M458,37h4.9l0.4-2.5c0.6-3-0.1-4.1-1.9-4.1c-1.9,0-2.5,1.3-3.1,4.3L458,37z"/>
		</g>
		<g class="st0">
			<path class="st1" d="M486.4,54.2c-1.6,2.7-4.1,4.1-7.6,4.1c-5.8,0-7.7-3-6.6-9.6l0.2-1.3c0.7-3.7,2-5.8,3.9-7
				c2.4-1.5,4.1-1.9,7.8-3.1c3.5-1.1,4.9-1.7,5.3-3.7l0.1-0.7c0.3-2.1-0.2-2.9-1.7-2.9c-1.3,0-2.1,0.7-2.5,2.9l-0.5,2.8h-9.8
				l0.5-3.1c1.1-6.3,5.3-10.1,13-10.1c8.4,0,11.3,3.9,9.9,11.8l-2.4,13.5c-0.2,1.2,0,1.4,1.1,1.4h0.7l-1.4,8.5h-4.2
				C488.4,57.6,486.7,56.8,486.4,54.2z M486.9,47.8l1.3-7c-0.2,0.5-0.6,0.7-1.4,1c-1.2,0.4-2,0.8-2.5,1.3c-0.8,0.7-1.1,1.4-1.5,3.4
				l-0.3,1.6c-0.4,2,0.2,2.9,1.6,2.9C485.6,50.9,486.6,49.8,486.9,47.8z"/>
			<path class="st1" d="M508.5,57.6h-9.7L505,23h8l0.3,4.3c1.6-3.1,4-4.8,6.9-4.8c3.9,0,6.1,1.6,6.6,4.8c1.6-3.1,3.9-4.8,7-4.8
				c5.2,0,7.7,3.2,6.5,10c-0.5,3.1-4.5,25.1-4.5,25.1H526l4.2-23.3c0.4-2.1,0.3-3.3-1.3-3.3c-1.6,0-2.2,1.2-2.6,3.5l-4.2,23.1h-9.8
				l4.2-23.3c0.4-2.1,0.3-3.3-1.3-3.3c-1.6,0-2.2,1.2-2.6,3.5L508.5,57.6z"/>
		</g>
		<g class="st0">
			<path class="st1" d="M563.3,42.3l-2.8,15.3h-9.4l7.6-42.5H571c8.1,0,10.9,3.7,9.5,11.4l-1,5.4c-0.6,3.5-2,5.3-5.1,6.2
				c2.7,1.3,3,3.7,2.4,7.5l-1.6,9c-0.2,1.4-0.1,2.4,0.6,3h-10.1c-0.5-0.4-0.6-1.5-0.4-3l1.7-9.3c0.4-2.3-0.1-3-2.3-3H563.3z
				 M566.7,23.1l-1.9,10.6h2.2c2,0,2.8-0.7,3.1-2.4l1-5.4c0.4-2-0.2-2.7-2.2-2.7H566.7z"/>
		</g>
		<g class="st0">
			<path class="st1" d="M590.4,58.2c-9.2,0-11.9-5.1-10.5-12.8c0-0.1,2.2-12.3,2.2-12.4c1.1-6.6,5.9-10.6,12.7-10.6
				c8.7,0,12.2,4.9,10.7,12.6l-1.4,7.6h-14.3l-0.7,3.5c-0.5,3,0.1,3.8,1.8,3.8c1.7,0,2.3-1.2,2.8-3.7l0.2-1.2h9.6l-0.6,3
				C601.5,55.5,597.8,58.2,590.4,58.2z M590.8,37h4.9l0.4-2.5c0.6-3-0.1-4.1-1.9-4.1c-1.9,0-2.5,1.3-3.1,4.3L590.8,37z"/>
		</g>
		<g class="st0">
			<path class="st1" d="M605.3,48l0.6-3.3h9.6l-0.5,3.2c-0.3,1.7,0.4,2.3,2,2.3c1.6,0,2.4-1,2.7-2.6c0.5-2.7-2-3.7-4.9-5.1
				c-3.6-1.8-7.5-4.3-6.1-11l0.1-0.2c1-4.7,4.2-8.7,12.1-8.7c8.3,0,11.9,3.1,10.7,10.5l-0.2,1.5h-9.2l0.4-2.1c0.3-1.7-0.4-2.5-2-2.5
				s-2.2,0.8-2.4,2c-0.4,2.4,2.1,3.5,4.9,4.8c3.6,1.8,7.7,4.2,6.5,10.9l-0.1,0.4c-1.1,6.7-5,10.2-12.8,10.2
				C607.2,58.2,604.1,54.8,605.3,48z"/>
		</g>
		<g class="st0">
			<path class="st1" d="M632.1,45.4l2.2-12.2c1.1-6.5,5.8-10.6,12.7-10.6c8.7,0,12,5.1,10.6,13.1L655.3,48
				c-1.1,6.5-5.7,10.3-12.8,10.3C633.6,58.2,630.7,52.9,632.1,45.4z M645.9,46.5l2.2-12.2c0.5-2.7-0.2-3.5-1.7-3.5
				c-1.3,0-2.2,0.8-2.7,3.2l-2.2,12.6c-0.4,2.5,0.4,3.4,1.7,3.4C644.6,49.9,645.5,48.9,645.9,46.5z"/>
		</g>
		<g class="st0">
			<path class="st1" d="M671.8,53.5c-1.4,3-3.8,4.7-7.1,4.7c-5.4,0-7.6-3.5-6.4-10.3l4.5-24.8h9.9l-4.2,23.1
				c-0.4,2.1-0.4,3.5,1.3,3.5c1.2,0,2.1-1.2,2.6-3.9l4.1-22.8h9.8l-6.2,34.6h-8L671.8,53.5z"/>
		</g>
		<g class="st0">
			<path class="st1" d="M683.7,57.6l6.2-34.6h6.9l0.4,5.7c1.1-4.5,2.8-6.2,7.6-6.2h1.2l-2,11h-2.2c-3.5,0-4.3,0.8-4.9,4.3l-3.5,19.7
				H683.7z"/>
		</g>
		<g class="st0">
			<path class="st1" d="M704,45.4l2.2-12.6c1.1-6.3,5.8-10.3,12.7-10.3c8.8,0,11.9,4.9,10.6,13.1l-0.5,2.8h-9.9l0.7-3.7
				c0.5-3.1,0.2-4-1.4-4c-1.7,0-2.3,0.8-2.8,4l-2,11.5c-0.5,2.8-0.1,3.7,1.6,3.7c1.6,0,2.2-0.9,2.6-3.5l0.8-4.8h9.9l-1.1,6.4
				c-1.1,6.5-5.6,10.3-12.8,10.3C705.3,58.2,702.6,53.1,704,45.4z"/>
		</g>
		<g class="st0">
			<path class="st1" d="M741,58.2c-9.2,0-11.9-5.1-10.5-12.8c0-0.1,2.2-12.3,2.2-12.4c1.1-6.6,5.9-10.6,12.7-10.6
				c8.7,0,12.2,4.9,10.7,12.6l-1.4,7.6h-14.3l-0.7,3.5c-0.5,3,0.1,3.8,1.8,3.8c1.7,0,2.3-1.2,2.8-3.7l0.2-1.2h9.6l-0.6,3
				C752.1,55.5,748.4,58.2,741,58.2z M741.5,37h4.9l0.4-2.5c0.6-3-0.1-4.1-1.9-4.1c-1.9,0-2.5,1.3-3.1,4.3L741.5,37z"/>
			<path class="st1" d="M755.9,48l0.6-3.3h9.6l-0.5,3.2c-0.3,1.7,0.4,2.3,2,2.3c1.6,0,2.4-1,2.7-2.6c0.5-2.7-2-3.7-4.9-5.1
				c-3.6-1.8-7.5-4.3-6.1-11l0.1-0.2c1-4.7,4.2-8.7,12.1-8.7c8.3,0,11.9,3.1,10.7,10.5l-0.2,1.5h-9.2l0.4-2.1c0.3-1.7-0.4-2.5-2-2.5
				s-2.2,0.8-2.4,2c-0.4,2.4,2.1,3.5,4.9,4.8c3.6,1.8,7.7,4.2,6.5,10.9L780,48c-1.1,6.7-5,10.2-12.8,10.2
				C757.8,58.2,754.7,54.8,755.9,48z"/>
		</g>
		<g class="st0">
			<path d="M10.2,14h40.5l-7.3,42.2H2.9L10.2,14z M36.8,50.8l5.5-31.5H16.8l-5.5,31.5H36.8z M40.6,21.2l-0.9,5.4h-7.8l-0.8,4.7h7.4
				l-0.9,5.4h-7.4l-1.2,7H37L36,49H12.8l0.9-5.4h8.1l1.2-7h-7.4l0.9-5.4h7.4l0.8-4.7h-7.8l0.9-5.4H40.6z M31.3,38.3H37l-0.2,4.3
				h-5.7L31.3,38.3z"/>
			<path d="M89,25.8L88,31.1h-15l1.1,3.3l-2.8,16.2L69,56.4h-7.7l2.2-5.1l-18,5.1l0.9-5.4l18.3-5.1l0.5-2.7l-18.3,5.2l0.9-5.4
				l18.3-5.2l0.1-0.8l-0.4-1.4l-17.5,4.7l0.9-5.4l13.9-3.6H50.4l0.9-5.3H89z M76.9,13.7L76.5,16h15.6l-1.5,8.5h-7.6l0.6-3.2H58.2
				l-0.6,3.2h-7.5l1.5-8.5H69l0.4-2.3H76.9z M78.1,56.4l-3.6-14.9l5.6-8.7h7.6L81.9,42l3.8,14.4H78.1z"/>
			<path d="M111.5,13.7l-2.9,16.5l-1.9,2.6l1,2.4l-2.3,13.1l-2,5.4h-7.5l2.3-6.5l2-11.7h-2.6L94,56.1h-7.4L94,13.7H111.5z
				 M103.1,19.1h-2.6l-1.9,11h2.6L103.1,19.1z M127.8,56.2h-7.9l-1.8-15.3l-7,15.3h-7.9l13.6-29.4l2.3-13.3h7.5l-2.3,13.3
				L127.8,56.2z"/>
			<path d="M155.4,42l-0.7,3.9l16.1,6.6l-0.6,3.6h-11.6l-8.1-3.3l-10,3.3h-11.8l0.7-3.8l17.8-6.2l0.7-4.2H155.4z M133.6,36h38.4
				l-2.1,12.2h-7.6l1.3-7.5h-23.2l-1.3,7.5h-7.6L133.6,36z M132.7,34.6l3.5-11h7.6l-3.5,11H132.7z M144.2,13.7l0,8h-7.6v-8H144.2z
				 M164.3,21.4l-0.6,3.2l10.4,7.1l-0.5,2.9h-9.8l-5-3.5l-6.2,3.5h-9.7l0.5-2.9l12.8-7.1l0.6-3.2H164.3z M144.5,25.1l3.6-11.4h7.6
				l-0.4,1.3h21.7l-3.1,9.9h-7.6l1.7-5.2h-14.2l-1.7,5.4H144.5z"/>
			<path d="M174.9,40.1h7.1l-4.5,16h-7.1L174.9,40.1z M182.6,37.4l0.6-10.7h-7.1l-0.6,10.7H182.6z M184.9,24.3l0.5-10.7h-7.1
				l-0.5,10.7H184.9z M219.5,13.8l-0.9,5.4h-23.9l-7.1,36.9H180l8.1-42.3H219.5z M191.9,43.8h5.8l-3,12.3H189L191.9,43.8z
				 M195.3,22.6h5.3l1-2.6h7.2l-1,2.6h9.1l-3.3,19.2h-7.1l-1.7,9.6l-1.4,4.8h-7.4l1.6-5.1l1.6-9.2H192L195.3,22.6z M207.5,37
				l0.4-2.3h-7.7l-0.4,2.3H207.5z M201.5,27.5l-0.4,2.3h7.7l0.4-2.3H201.5z M213.4,43.8h-5.8l-1.3,12.3h5.8L213.4,43.8z"/>
		</g>
	</g>
</g>
</svg>
