<?xml version="1.0" encoding="utf-8"?>
<!-- Generator: Adobe Illustrator 23.0.1, SVG Export Plug-In . SVG Version: 6.00 Build 0)  -->
<svg version="1.1" id="图层_1" xmlns="http://www.w3.org/2000/svg" xmlns:xlink="http://www.w3.org/1999/xlink" x="0px" y="0px"
	 viewBox="0 0 577.1 75.3" style="enable-background:new 0 0 577.1 75.3;" xml:space="preserve">
<style type="text/css">
	.st0{enable-background:new    ;}
	.st1{fill:#D7000F;}
</style>
<title>赛事资源</title>
<g>
	<g id="图层_1-2">
		<g class="st0">
			<path class="st1" d="M205.1,57.6H184l7.3-42.3h20.9l-1.5,8.7h-11.2l-1.4,7.9h10l-1.5,8.8h-10l-1.4,7.9h11.4L205.1,57.6z"/>
		</g>
		<g class="st0">
			<path class="st1" d="M214.2,57.6L212,23.2h9.7l0.1,15.4l-0.7,6.9l1.7-6.9l5.4-15.4h9.7l-14.1,34.4H214.2z"/>
		</g>
		<g class="st0">
			<path class="st1" d="M234.2,46.2l2-11.6c1.3-7.7,6.7-11.9,13.8-11.9c8.3,0,11.2,4.3,9.9,11.8l-1.4,8.3h-14.2l-0.6,3.5
				c-0.5,3,0.1,3.8,1.8,3.8c1.7,0,2.4-1.2,2.9-4l0.2-0.9h9.6l-0.2,1.2c-1.2,6.8-4.1,11.7-13.9,11.8
				C235.6,58.4,232.8,54.3,234.2,46.2z M245.2,37.1h4.9l0.4-2.5c0.5-2.8,0.2-4.1-1.7-4.1c-1.9,0-2.7,1.3-3.3,4.2L245.2,37.1z"/>
		</g>
		<g class="st0">
			<path class="st1" d="M268.8,57.6h-9.9l6-34.4h8.1l0.3,4.2c1.6-2.9,4.2-4.6,7.6-4.6c5.3,0,7.3,3.2,6.1,9.9l-4.3,24.9h-9.8l4-23.2
				c0.4-2.1,0.2-3.3-1.3-3.3c-1.6,0-2.3,1.2-2.7,3.5L268.8,57.6z"/>
		</g>
		<g class="st0">
			<path class="st1" d="M301.5,57.6h-3.6c-7.5,0-9.6-2.2-8.2-10.1l2.6-15h-3.4l1.5-8.8c1-0.1,2-0.2,3-0.8c1.2-0.6,1.9-1.5,2.6-2.8
				c0.6-1.1,0.9-1.9,1.3-3.2h6.8l-1.1,6.2h4.4l-1.6,9.3h-4.4l-2.1,12.2c-0.6,3.4,0.3,3.6,2.5,3.6h1.2L301.5,57.6z"/>
		</g>
		<g class="st0">
			<path class="st1" d="M305,48.5l0.6-3.5h9.7l-0.5,2.9c-0.3,1.6,0.3,2.3,1.9,2.3c1.6,0,2.4-1,2.7-2.6l0-0.1
				c0.4-2.6-2.1-3.4-4.9-4.5c-3.6-1.4-7.6-3.4-6.4-10.1l0.1-0.3c1-5.7,5.3-10,13.3-10c8.2,0,10.7,3.8,9.7,9.4l-0.4,2.6h-9.1l0.4-2.1
				c0.3-1.6-0.1-2.5-1.7-2.5c-1.6,0-2.4,0.9-2.6,2.3l0,0.2c-0.3,1.9,2,2.8,4.7,3.9c3.7,1.6,8,3.9,6.8,10.7l-0.1,0.5
				c-1.1,6.2-5.7,10.6-13.7,10.6C306.7,58.3,303.9,54.8,305,48.5z"/>
		</g>
		<g class="st0">
			<path class="st1" d="M353.4,42.4l-2.6,15.2h-9.4l7.3-42.3H361c8,0,11.1,2.7,9.7,10.4l-0.9,5.4c-0.7,3.8-2.3,5.8-5,6.8
				c2.6,1.1,3,3.1,2.4,6.8l-1.7,9.9c-0.2,1.4,0,2.4,0.6,3h-10c-0.5-0.4-0.6-1.5-0.3-3l1.6-9.3c0.4-2.3-0.1-2.9-2.4-2.9H353.4z
				 M356.7,23.3l-1.8,10.5h2.2c2,0,2.8-0.7,3.1-2.4l0.9-5.4c0.3-1.9-0.2-2.7-2.2-2.7H356.7z"/>
		</g>
		<g class="st0">
			<path class="st1" d="M370.1,46.2l2-11.6c1.3-7.7,6.7-11.9,13.8-11.9c8.3,0,11.2,4.3,9.9,11.8l-1.4,8.3h-14.2l-0.6,3.5
				c-0.5,3,0.1,3.8,1.8,3.8s2.4-1.2,2.9-4l0.2-0.9h9.6l-0.2,1.2c-1.2,6.8-4.1,11.7-13.9,11.8C371.6,58.4,368.7,54.3,370.1,46.2z
				 M381.2,37.1h4.9l0.4-2.5c0.5-2.8,0.2-4.1-1.7-4.1c-1.9,0-2.7,1.3-3.3,4.2L381.2,37.1z"/>
		</g>
		<g class="st0">
			<path class="st1" d="M395.6,48.5l0.6-3.5h9.7l-0.5,2.9c-0.3,1.6,0.3,2.3,1.9,2.3c1.6,0,2.4-1,2.7-2.6l0-0.1
				c0.4-2.6-2.1-3.4-4.9-4.5c-3.6-1.4-7.6-3.4-6.4-10.1l0.1-0.3c1-5.7,5.3-10,13.3-10c8.2,0,10.7,3.8,9.7,9.4l-0.4,2.6h-9.1l0.4-2.1
				c0.3-1.6-0.1-2.5-1.7-2.5c-1.6,0-2.4,0.9-2.6,2.3l0,0.2c-0.3,1.9,2,2.8,4.7,3.9c3.7,1.6,8,3.9,6.8,10.7l-0.1,0.5
				c-1.1,6.2-5.7,10.6-13.7,10.6C397.3,58.3,394.5,54.8,395.6,48.5z"/>
		</g>
		<g class="st0">
			<path class="st1" d="M421.8,46.5l2.1-11.8c1.4-8.1,6.4-11.9,13.8-11.9c7.7,0,11.1,3.9,9.7,11.9l-2,11.8
				c-1.4,8.2-5.9,11.8-13.9,11.8C423.5,58.2,420.4,54.7,421.8,46.5z M435.8,46.3l2-11.5c0.5-2.9,0.3-3.9-1.5-3.9
				c-1.6,0-2.4,1-2.9,3.9l-2,11.5c-0.5,2.7,0.1,3.6,1.6,3.6C434.4,49.9,435.3,49,435.8,46.3z"/>
		</g>
		<g class="st0">
			<path class="st1" d="M461.7,53.6c-1.5,2.9-3.8,4.5-7.2,4.5c-5.5,0-7.5-3.1-6.3-10l4.3-24.9h9.8l-4,23.2c-0.4,2.1-0.3,3.3,1.3,3.3
				c1.6,0,2.1-1.2,2.5-3.5l4-23h9.8l-6,34.4h-8L461.7,53.6z"/>
		</g>
		<g class="st0">
			<path class="st1" d="M473.6,57.6l6-34.4h6.8l0.4,5.8c1-4.5,2.7-6.2,7.5-6.2h1.2l-1.9,10.9h-2.2c-3.5,0-4.3,0.8-4.9,4.3l-3.4,19.6
				H473.6z"/>
		</g>
		<g class="st0">
			<path class="st1" d="M493.2,46.5l2-11.8c1.4-8.1,6.5-11.9,14.3-11.9c7.7,0,10.7,4.2,9.3,11.9l-0.7,3.8h-9.8l0.6-3.6
				c0.5-3.1,0.4-4-1.2-4c-1.7,0-2.4,0.8-2.9,3.9l-2,11.5c-0.5,2.8-0.1,3.6,1.5,3.6c1.6,0,2.1-0.9,2.6-3.5l0.8-4.8h9.8l-0.9,5.1
				c-1.4,7.8-5.7,11.5-13.9,11.5C495,58.2,491.8,54.6,493.2,46.5z"/>
		</g>
		<g class="st0">
			<path class="st1" d="M519.8,46.2l2-11.6c1.3-7.7,6.7-11.9,13.8-11.9c8.3,0,11.2,4.3,9.9,11.8l-1.4,8.3h-14.2l-0.6,3.5
				c-0.5,3,0.1,3.8,1.8,3.8s2.4-1.2,2.9-4l0.2-0.9h9.6l-0.2,1.2c-1.2,6.8-4.1,11.7-13.9,11.8C521.3,58.4,518.4,54.3,519.8,46.2z
				 M530.9,37.1h4.9l0.4-2.5c0.5-2.8,0.2-4.1-1.7-4.1c-1.9,0-2.7,1.3-3.3,4.2L530.9,37.1z"/>
		</g>
		<g class="st0">
			<path class="st1" d="M545.3,48.5l0.6-3.5h9.7l-0.5,2.9c-0.3,1.6,0.3,2.3,1.9,2.3c1.6,0,2.4-1,2.7-2.6l0-0.1
				c0.4-2.6-2.1-3.4-4.9-4.5c-3.6-1.4-7.6-3.4-6.4-10.1l0.1-0.3c1-5.7,5.3-10,13.3-10c8.2,0,10.7,3.8,9.7,9.4l-0.4,2.6h-9.1l0.4-2.1
				c0.3-1.6-0.1-2.5-1.7-2.5c-1.6,0-2.4,0.9-2.6,2.3l0,0.2c-0.3,1.9,2,2.8,4.7,3.9c3.7,1.6,8,3.9,6.8,10.7l-0.1,0.5
				c-1.1,6.2-5.7,10.6-13.7,10.6C547,58.3,544.2,54.8,545.3,48.5z"/>
		</g>
		<g class="st0">
			<path d="M29,44l-0.6,3.4L44.2,53l-0.6,3.3H32.1l-8.4-3.1l-9.2,3.1H2.6L3.2,53l17.7-5.6l0.6-3.4H29z M7.1,42H4.6l0.4-2.4l5.9-3
				H5.6l0.7-3.9h8.4l0.2-1.3H7.4L8,27.5h7.6l0.2-1.3H8.3l0.7-3.9h7.6l0.3-1.7h7.6l-0.3,1.7h10l0.3-1.7h7.5l-0.3,1.7h7.6l-0.7,3.9
				h-7.6l-0.2,1.3h7.6l-0.7,3.9H40l-0.2,1.3h8.4l-0.7,3.9h-5.4l4.9,3L46.5,42h-2.4L43,48.9h-7.6l1-5.7H14.5l-0.9,5.4H6L7.1,42z
				 M34.3,13.8L34,15.2H51L50,21h-7.6l0.3-1.9H16.4L16.1,21H8.6l1-5.7h16.9l0.2-1.4H34.3z M16.8,39.4h18.4l-3.8-2.7h-9.9L16.8,39.4z
				 M22.3,32.7h10l0.2-1.3h-10L22.3,32.7z M23.2,27.5h10l0.2-1.3h-10L23.2,27.5z"/>
			<path d="M68.7,15.1l0.3-1.6h7.6l-0.3,1.6h16.4l-0.8,4.5H75.5l-0.3,1.5h15.1l-2,11.5H73.3L73,34h15.3l-1.1,6.4h1.4l-0.8,4.5h-1.4
				l-1.1,6.3H70l0,0.1l-1.9,5h-7.8l1.9-5.1H46.7l0.8-4.8h15.8l0.3-1.6H46.4l0.8-4.5h17.2l0.3-1.6H48.9l0.8-4.8h15.8l0.2-1.4H50.2
				l2-11.5h15.5l0.3-1.5H51.2l0.8-4.5H68.7z M66.5,28.1l0.4-2.4H59l-0.4,2.4H66.5z M78.7,46.5l0.3-1.6h-7.8l-0.3,1.6H78.7z
				 M72.2,38.8l-0.3,1.6h7.8l0.3-1.6H72.2z M74.5,25.6l-0.4,2.4h7.6l0.4-2.4H74.5z"/>
			<path d="M113.4,42l-0.7,3.9l16.1,6.6l-0.6,3.6h-11.6l-8.1-3.3l-10,3.3H86.6l0.7-3.8l17.8-6.2l0.7-4.2H113.4z M91.5,36h38.4
				l-2.1,12.2h-7.6l1.3-7.5H98.3L97,48.3h-7.6L91.5,36z M90.7,34.6l3.5-11h7.6l-3.5,11H90.7z M102.2,13.7l0,8h-7.6v-8H102.2z
				 M122.2,21.4l-0.6,3.2l10.4,7.1l-0.5,2.9h-9.8l-5-3.5l-6.2,3.5h-9.7l0.5-2.9l12.8-7.1l0.6-3.2H122.2z M102.4,25.1l3.6-11.4h7.6
				l-0.4,1.3h21.7l-3.1,9.9h-7.6l1.7-5.2h-14.2l-1.7,5.4H102.4z"/>
			<path d="M132.9,40.1h7.1l-4.5,16h-7.1L132.9,40.1z M140.6,37.4l0.6-10.7h-7.1l-0.6,10.7H140.6z M142.8,24.3l0.5-10.7h-7.1
				l-0.5,10.7H142.8z M177.5,13.8l-0.9,5.4h-23.9l-7.1,36.9H138l8.1-42.3H177.5z M149.9,43.8h5.8l-3,12.3h-5.8L149.9,43.8z
				 M153.3,22.6h5.3l1-2.6h7.2l-1,2.6h9.1l-3.3,19.2h-7.1l-1.7,9.6l-1.4,4.8h-7.4l1.6-5.1l1.6-9.2H150L153.3,22.6z M165.4,37
				l0.4-2.3h-7.7l-0.4,2.3H165.4z M159.4,27.5l-0.4,2.3h7.7l0.4-2.3H159.4z M171.4,43.8h-5.8l-1.3,12.3h5.8L171.4,43.8z"/>
		</g>
	</g>
</g>
</svg>
