<svg xmlns="http://www.w3.org/2000/svg" viewBox="0 0 34.02 155.91"><defs><style>.cls-1{opacity:0.5;}.cls-2{fill:#040000;}.cls-3{fill:#fff;}.cls-4{fill:#fdfdfd;}</style></defs><title>资源 583</title><g id="图层_2" data-name="图层 2"><g id="图层_1-2" data-name="图层 1"><g class="cls-1"><rect class="cls-2" width="34.02" height="155.91" rx="17.01"/></g><path class="cls-3" d="M22.22,78.29a.92.92,0,1,0,.92-.94A.94.94,0,0,0,22.22,78.29Z"/><path class="cls-3" d="M24.16,75.46H13.55s-2-6.42-3.24-10.87c-.15-.56-.48-.47-.92-.47H8.93c-.51,0-.92,0-.92.47s.44.47.92.47h.46c.45,0,3.69,11.34,3.69,11.34H24.16A.47.47,0,0,0,24.16,75.46Z"/><polygon class="cls-3" points="14.47 74.51 24.06 74.51 26.01 67.43 12.16 67.43 14.47 74.51"/><path class="cls-3" d="M13,78.29a.93.93,0,1,0,1.85,0,.93.93,0,1,0-1.85,0Z"/><path class="cls-3" d="M23.58,123a6.63,6.63,0,0,0-13.14,0,.93.93,0,0,0-.76.91.93.93,0,0,0,1.85,0,.94.94,0,0,0-.63-.88,6.17,6.17,0,0,1,12.22,0,.93.93,0,0,0,0,1.76,6.2,6.2,0,0,1-4.65,5.12.73.73,0,0,0-.6-.32H16.15a.72.72,0,0,0-.72.72.73.73,0,0,0,.72.73h1.72a.73.73,0,0,0,.72-.69,6.65,6.65,0,0,0,5-5.53.92.92,0,0,0,0-1.82Zm-1.72.91A4.85,4.85,0,1,0,17,128.78,4.85,4.85,0,0,0,21.86,123.93Z"/><path class="cls-3" d="M25,28.5a1.2,1.2,0,0,0,.81-.3.94.94,0,0,0,0-1.43l-8-7.08a1.17,1.17,0,0,0-.8-.3,1.15,1.15,0,0,0-.8.3l-8,7.08a1,1,0,0,0-.34.71.92.92,0,0,0,.34.72,1.17,1.17,0,0,0,.8.3Z"/><path class="cls-3" d="M26.25,49.57H8.3c-.11,0-.19-.12-.19-.25s.08-.25.19-.25h18c.11,0,.19.11.19.25S26.36,49.57,26.25,49.57Z"/><path class="cls-3" d="M26.25,103.88H8.3c-.11,0-.19-.11-.19-.25s.08-.25.19-.25h18c.11,0,.19.11.19.25S26.36,103.88,26.25,103.88Z"/><path class="cls-4" d="M6.91,39l.41.25a3.22,3.22,0,0,0,1.52.24A20.78,20.78,0,0,0,11,39.37a1.47,1.47,0,0,0-.14.45c-.43,0-1.45.07-2,.07a3.45,3.45,0,0,1-1.6-.28c-.25-.14-.44-.31-.57-.31s-.45.32-.71.65l-.28-.39A2.28,2.28,0,0,1,6.49,39V37.32H5.76v-.41H6.91ZM6.7,36.13a11.29,11.29,0,0,0-.79-.94L6.25,35c.26.27.63.66.81.89Zm1.41.5A4,4,0,0,1,7.43,39a2.25,2.25,0,0,0-.36-.24,3.72,3.72,0,0,0,.62-2.34V35.19a16.05,16.05,0,0,0,2.76-.33l.36.34a14.65,14.65,0,0,1-2.7.35v.69h2.17l.08,0,.26.1A4.29,4.29,0,0,1,9.76,38a12.15,12.15,0,0,1,.92.83l-.33.3a10.35,10.35,0,0,0-.87-.84,4.23,4.23,0,0,1-1.34.85,1.36,1.36,0,0,0-.24-.35A3.74,3.74,0,0,0,9.17,38c-.32-.27-.64-.54-.93-.76l.3-.25c.28.21.59.47.91.72a3.46,3.46,0,0,0,.65-1.08Z"/><path class="cls-4" d="M16.53,35v5h-.45v-.31H12.17V40h-.43V35Zm-.45,4.32V35.43H12.17v3.89Zm-.84-3v2.09H13V36.33Zm-.42.39h-1.4V38h1.4Z"/><path class="cls-4" d="M18.67,35.58v3.71c0,.27-.07.39-.24.46a2.43,2.43,0,0,1-.9.09,2.5,2.5,0,0,0-.16-.43h.74c.1,0,.13,0,.13-.12V35.58h-.93v-.4h2.13v.4Zm2.6,2.32A2.14,2.14,0,0,1,19.6,40a2,2,0,0,0-.26-.33c1.41-.46,1.51-1.22,1.51-1.81V36.74h.42ZM20.61,36a5.69,5.69,0,0,0,.16-.59H19.55V35h3v.38H21.23c-.06.2-.14.41-.21.59h1.32v2.7h-.42v-2.3H20.19V38.7h-.41V36Zm.78,2.8a8.82,8.82,0,0,1,1.19.94l-.29.32a8.53,8.53,0,0,0-1.19-1Z"/><path class="cls-4" d="M25.76,36c-.13.34-.29.73-.44,1h.82v.4h-3V37h1.77a8,8,0,0,0,.42-1.12Zm.25-.12H23.3v-.4h1.2a6.07,6.07,0,0,0-.24-.59l.38-.11a5.81,5.81,0,0,1,.31.7H26Zm-2.54,2.07h2.4V40h-.42v-.23H23.88V40h-.41ZM24,37a4.54,4.54,0,0,0-.35-1l.37-.09a4.29,4.29,0,0,1,.38,1Zm-.13,1.33v1.05h1.57V38.3Zm4.4-3c-.21.52-.47,1.18-.71,1.71a2,2,0,0,1,.64,1.4.87.87,0,0,1-.26.73.74.74,0,0,1-.36.12,3.93,3.93,0,0,1-.49,0,1.07,1.07,0,0,0-.12-.41h.45a.86.86,0,0,0,.23-.06.56.56,0,0,0,.15-.45A1.88,1.88,0,0,0,27.15,37c.21-.48.44-1.1.59-1.54h-.91V40h-.39v-5h1.48l.07,0Z"/><path class="cls-4" d="M9.94,86.69a2.88,2.88,0,0,1-1.13,2.57A1.54,1.54,0,0,0,8.56,89a2.46,2.46,0,0,0,1-2.31V85.18h.35Zm-.79,1.13H8.81V84.34h1.9V87.8h-.35V84.73H9.15Zm1,.13a8.74,8.74,0,0,1,.79,1l-.3.23a6.52,6.52,0,0,0-.79-1Zm3.56-3a2.13,2.13,0,0,1,0,.22c-.08,2.73-.14,3.62-.35,3.9a.57.57,0,0,1-.42.24,6.34,6.34,0,0,1-.74,0,1,1,0,0,0-.12-.43c.3,0,.58,0,.7,0a.2.2,0,0,0,.21-.1c.16-.19.24-1.07.31-3.46H11.61a6.69,6.69,0,0,1-.53.9,2.18,2.18,0,0,0-.34-.26,5.16,5.16,0,0,0,.88-2l.41.1c-.07.27-.16.55-.26.82Zm-1,3.14a3.6,3.6,0,0,0-.08-.37,7.45,7.45,0,0,0-1.45.36,1.49,1.49,0,0,0-.13-.37c.09,0,.16-.16.25-.35a8.79,8.79,0,0,0,.47-1.58l.39.12a11,11,0,0,1-.58,1.68l.94-.19c-.08-.25-.18-.51-.27-.73l.3-.09A9.34,9.34,0,0,1,13,87.91Z"/><path class="cls-4" d="M15.81,87.17v2.11h-.4v-2l-.95.3-.12-.41c.29-.09.66-.18,1.07-.31V85.59h-.53a5.22,5.22,0,0,1-.25.86,2.23,2.23,0,0,0-.33-.2,6.77,6.77,0,0,0,.4-1.92l.37.06c0,.26-.07.53-.11.78h.45V84h.4v1.17h.59v.42h-.59v1.18l.67-.21.06.38ZM19.59,85v.22c-.13,2.62-.26,3.51-.49,3.8a.49.49,0,0,1-.4.22,2.88,2.88,0,0,1-.66,0,1,1,0,0,0-.12-.42l.61,0a.23.23,0,0,0,.21-.1c.19-.2.31-1.06.43-3.35h-.28A6.6,6.6,0,0,1,17,89.18a1.58,1.58,0,0,0-.36-.26,5.89,5.89,0,0,0,1.87-3.56h-.47A5.63,5.63,0,0,1,16.62,88a1.87,1.87,0,0,0-.34-.25,4.85,4.85,0,0,0,1.4-2.37h-.5a4.45,4.45,0,0,1-.66,1.1,2.85,2.85,0,0,0-.33-.25,4.91,4.91,0,0,0,1-2.22l.4.08a7.71,7.71,0,0,1-.26.89h2.25Z"/><path class="cls-4" d="M25.33,88.19h-2v1.09h-.45V88.19H20.28v-.43h2.55v-.87H21.51a1.35,1.35,0,0,0-.62.08,4.06,4.06,0,0,0-.16-.44c.13,0,.25-.2.4-.45s.26-.44.45-.83H20.36v-.42h1.42c.12-.28.25-.58.35-.87l.48.14c-.11.25-.21.49-.33.73h2.94v.42H22.08a12.51,12.51,0,0,1-.72,1.23h1.47v-.87h.45v.87h1.57v.41H23.28v.87h2Z"/><path class="cls-4" d="M15.69,137.71a3.79,3.79,0,0,1-1.15,1.1,7.82,7.82,0,0,0,2.24.62,1.76,1.76,0,0,0-.27.4,5.28,5.28,0,0,1-.81-.16v1.7h-.43v-.19H13v.2h-.41V139.7c-.31.09-.61.16-.92.22a1.65,1.65,0,0,0-.2-.37,8.58,8.58,0,0,0,2.27-.72,5,5,0,0,1-.76-.67,5.53,5.53,0,0,1-.9.56,1.22,1.22,0,0,0-.29-.31,3.84,3.84,0,0,0,1.64-1.29l.46.08c-.08.12-.17.23-.26.34h1.72l.07,0Zm-3.58,0h-.43v-1.08H14c-.08-.15-.17-.33-.26-.47l.42-.1a6.59,6.59,0,0,1,.34.57h2.06v1.08H16.1V137h-4Zm3.37,1.91a6.34,6.34,0,0,1-1.36-.55,7.36,7.36,0,0,1-1.29.55Zm-.21,1.2V140H13v.83Zm-2-2.9a3.8,3.8,0,0,0,.86.7,4,4,0,0,0,.91-.73H13.29Z"/><path class="cls-4" d="M19.32,140.87c0,.23-.05.36-.2.43a1.81,1.81,0,0,1-.76.08,1.62,1.62,0,0,0-.13-.41h.58c.08,0,.11,0,.11-.11v-1.42H18a5.52,5.52,0,0,1-.44,1.95,1.21,1.21,0,0,0-.35-.21,6.78,6.78,0,0,0,.43-2.81v-2.06h1.67Zm-.4-1.84v-1H18v.31c0,.2,0,.43,0,.66ZM18,136.71v.95h.88v-.95Zm4.39,1.64a4.82,4.82,0,0,1-.8,2,3.2,3.2,0,0,0,1,.76,1.48,1.48,0,0,0-.28.33,3.61,3.61,0,0,1-.93-.78,3.61,3.61,0,0,1-.88.74,1.61,1.61,0,0,0-.25-.32,2.9,2.9,0,0,0,.88-.74,6.15,6.15,0,0,1-.77-1.61h-.14v2.7h-.41v-5h2.44v1.11c0,.22-.05.33-.22.39a3.54,3.54,0,0,1-.91.06,1.28,1.28,0,0,0-.14-.37h.74c.1,0,.12,0,.12-.09v-.7H20.23v1.55H22.1l.08,0Zm-1.68.33a5,5,0,0,0,.63,1.29,4.23,4.23,0,0,0,.58-1.29Z"/></g></g></svg>