<?xml version="1.0" encoding="utf-8"?>
<!-- Generator: Adobe Illustrator 23.0.1, SVG Export Plug-In . SVG Version: 6.00 Build 0)  -->
<svg version="1.1" id="图层_1" xmlns="http://www.w3.org/2000/svg" xmlns:xlink="http://www.w3.org/1999/xlink" x="0px" y="0px"
	 viewBox="0 0 42.7 42.5" style="enable-background:new 0 0 42.7 42.5;" xml:space="preserve">
<style type="text/css">
	.st0{fill:#9C999A;}
</style>
<title>微信-灰</title>
<g>
	<path class="st0" d="M14.1,14.2c-0.7,0-1.5,0.5-1.5,1.2c0,0.7,0.7,1.2,1.5,1.2c0.1,0,0.1,0,0.2,0c0.6,0,1.2-0.6,1.1-1.2
		c0-0.1,0-0.1,0-0.2C15.3,14.6,14.7,14.1,14.1,14.2z"/>
	<path class="st0" d="M21.1,16.6c0.1,0,0.1,0,0.2,0c0.6,0,1.2-0.6,1.1-1.2c0-0.1,0-0.1,0-0.2c-0.1-0.6-0.6-1.1-1.3-1
		c-0.7,0-1.5,0.5-1.5,1.2C19.6,16.1,20.3,16.6,21.1,16.6z"/>
	<path class="st0" d="M24.2,21.2c-0.5,0.1-0.9,0.5-1,1c0.1,0.6,0.5,0.9,1,1c0.6,0.1,1.2-0.4,1.3-1C25.3,21.5,24.8,21.1,24.2,21.2z"
		/>
	<path class="st0" d="M29.6,21.2c-0.5,0.1-0.9,0.5-1,1c0.1,0.5,0.5,0.9,1,1c0.6,0.1,1.2-0.4,1.3-1C30.8,21.5,30.2,21.1,29.6,21.2z"
		/>
	<path class="st0" d="M21.3,0C9.6,0,0.1,9.5,0.1,21.2s9.5,21.3,21.3,21.3S42.6,33,42.6,21.2S33.1,0,21.3,0z M17.3,26.5
		c-1.2-0.1-2.3-0.2-3.5-0.5l-3.5,1.7l1-2.9c-2.5-1.7-4-3.9-4-6.6c0-4.6,4.5-8.2,9.9-8.2c4.9,0,9.2,2.9,10,6.8
		c-0.3-0.1-0.6-0.1-0.9-0.1c-4.7,0-8.4,3.4-8.4,7.6c0,0.7,0.1,1.4,0.3,2C18,26.5,17.6,26.5,17.3,26.5z M31.8,30l0.7,2.4l-2.7-1.5
		c-0.9,0.3-1.9,0.4-2.9,0.5c-4.7,0-8.4-3.1-8.4-7c0-3.9,3.7-7,8.4-7c4.5,0,8.4,3.1,8.4,7C35.3,26.6,33.8,28.5,31.8,30z"/>
</g>
</svg>
